<mxfile host="app.diagrams.net" modified="2021-06-06T07:02:39.184Z" agent="5.0 (Macintosh; Intel Mac OS X 10_15_7) AppleWebKit/537.36 (KHTML, like Gecko) Chrome/91.0.4472.77 Safari/537.36" etag="98BBOxNxpoqZef7ZLpDq" version="14.7.6" type="github">
  <diagram id="C5RBs43oDa-KdzZeNtuy" name="Page-1">
    <mxGraphModel dx="1977" dy="1137" grid="1" gridSize="10" guides="1" tooltips="1" connect="1" arrows="1" fold="1" page="1" pageScale="1" pageWidth="827" pageHeight="1169" math="0" shadow="0">
      <root>
        <mxCell id="WIyWlLk6GJQsqaUBKTNV-0" />
        <mxCell id="WIyWlLk6GJQsqaUBKTNV-1" parent="WIyWlLk6GJQsqaUBKTNV-0" />
        <mxCell id="80CJtaHzLF7KdKfBCswg-11" style="edgeStyle=orthogonalEdgeStyle;rounded=0;orthogonalLoop=1;jettySize=auto;html=1;exitX=1;exitY=0.5;exitDx=0;exitDy=0;entryX=0.5;entryY=0;entryDx=0;entryDy=0;endArrow=none;endFill=0;" edge="1" parent="WIyWlLk6GJQsqaUBKTNV-1" source="80CJtaHzLF7KdKfBCswg-1" target="80CJtaHzLF7KdKfBCswg-2">
          <mxGeometry relative="1" as="geometry" />
        </mxCell>
        <mxCell id="80CJtaHzLF7KdKfBCswg-25" value="N" style="edgeLabel;html=1;align=center;verticalAlign=middle;resizable=0;points=[];" vertex="1" connectable="0" parent="80CJtaHzLF7KdKfBCswg-11">
          <mxGeometry x="-0.3659" y="-2" relative="1" as="geometry">
            <mxPoint as="offset" />
          </mxGeometry>
        </mxCell>
        <mxCell id="80CJtaHzLF7KdKfBCswg-13" style="edgeStyle=orthogonalEdgeStyle;rounded=0;orthogonalLoop=1;jettySize=auto;html=1;exitX=0;exitY=0.5;exitDx=0;exitDy=0;entryX=0.5;entryY=0;entryDx=0;entryDy=0;endArrow=none;endFill=0;" edge="1" parent="WIyWlLk6GJQsqaUBKTNV-1" source="80CJtaHzLF7KdKfBCswg-1" target="80CJtaHzLF7KdKfBCswg-5">
          <mxGeometry relative="1" as="geometry" />
        </mxCell>
        <mxCell id="80CJtaHzLF7KdKfBCswg-23" value="Y" style="edgeLabel;html=1;align=center;verticalAlign=middle;resizable=0;points=[];" vertex="1" connectable="0" parent="80CJtaHzLF7KdKfBCswg-13">
          <mxGeometry x="-0.5684" y="-4" relative="1" as="geometry">
            <mxPoint as="offset" />
          </mxGeometry>
        </mxCell>
        <mxCell id="80CJtaHzLF7KdKfBCswg-1" value="C1" style="rhombus;whiteSpace=wrap;html=1;" vertex="1" parent="WIyWlLk6GJQsqaUBKTNV-1">
          <mxGeometry x="285" y="160" width="150" height="80" as="geometry" />
        </mxCell>
        <mxCell id="80CJtaHzLF7KdKfBCswg-12" style="edgeStyle=orthogonalEdgeStyle;rounded=0;orthogonalLoop=1;jettySize=auto;html=1;exitX=0.5;exitY=1;exitDx=0;exitDy=0;entryX=0.5;entryY=0;entryDx=0;entryDy=0;endArrow=none;endFill=0;" edge="1" parent="WIyWlLk6GJQsqaUBKTNV-1" source="80CJtaHzLF7KdKfBCswg-2" target="80CJtaHzLF7KdKfBCswg-4">
          <mxGeometry relative="1" as="geometry" />
        </mxCell>
        <mxCell id="80CJtaHzLF7KdKfBCswg-2" value="g" style="rounded=0;whiteSpace=wrap;html=1;" vertex="1" parent="WIyWlLk6GJQsqaUBKTNV-1">
          <mxGeometry x="480" y="240" width="120" height="60" as="geometry" />
        </mxCell>
        <mxCell id="80CJtaHzLF7KdKfBCswg-10" style="edgeStyle=orthogonalEdgeStyle;rounded=0;orthogonalLoop=1;jettySize=auto;html=1;exitX=0.5;exitY=1;exitDx=0;exitDy=0;" edge="1" parent="WIyWlLk6GJQsqaUBKTNV-1" source="80CJtaHzLF7KdKfBCswg-3" target="80CJtaHzLF7KdKfBCswg-1">
          <mxGeometry relative="1" as="geometry" />
        </mxCell>
        <mxCell id="80CJtaHzLF7KdKfBCswg-3" value="START" style="rounded=1;whiteSpace=wrap;html=1;" vertex="1" parent="WIyWlLk6GJQsqaUBKTNV-1">
          <mxGeometry x="300" y="40" width="120" height="60" as="geometry" />
        </mxCell>
        <mxCell id="80CJtaHzLF7KdKfBCswg-21" style="edgeStyle=orthogonalEdgeStyle;rounded=0;orthogonalLoop=1;jettySize=auto;html=1;exitX=0.5;exitY=1;exitDx=0;exitDy=0;endArrow=none;endFill=0;" edge="1" parent="WIyWlLk6GJQsqaUBKTNV-1" source="80CJtaHzLF7KdKfBCswg-4">
          <mxGeometry relative="1" as="geometry">
            <mxPoint x="360" y="500" as="targetPoint" />
          </mxGeometry>
        </mxCell>
        <mxCell id="80CJtaHzLF7KdKfBCswg-4" value="P" style="rounded=0;whiteSpace=wrap;html=1;" vertex="1" parent="WIyWlLk6GJQsqaUBKTNV-1">
          <mxGeometry x="480" y="350" width="120" height="60" as="geometry" />
        </mxCell>
        <mxCell id="80CJtaHzLF7KdKfBCswg-14" style="edgeStyle=orthogonalEdgeStyle;rounded=0;orthogonalLoop=1;jettySize=auto;html=1;exitX=0.5;exitY=1;exitDx=0;exitDy=0;endArrow=none;endFill=0;" edge="1" parent="WIyWlLk6GJQsqaUBKTNV-1" source="80CJtaHzLF7KdKfBCswg-5" target="80CJtaHzLF7KdKfBCswg-6">
          <mxGeometry relative="1" as="geometry" />
        </mxCell>
        <mxCell id="80CJtaHzLF7KdKfBCswg-27" value="Y" style="edgeLabel;html=1;align=center;verticalAlign=middle;resizable=0;points=[];" vertex="1" connectable="0" parent="80CJtaHzLF7KdKfBCswg-14">
          <mxGeometry x="-0.2914" y="2" relative="1" as="geometry">
            <mxPoint y="1" as="offset" />
          </mxGeometry>
        </mxCell>
        <mxCell id="80CJtaHzLF7KdKfBCswg-16" style="edgeStyle=orthogonalEdgeStyle;rounded=0;orthogonalLoop=1;jettySize=auto;html=1;exitX=1;exitY=0.5;exitDx=0;exitDy=0;endArrow=none;endFill=0;" edge="1" parent="WIyWlLk6GJQsqaUBKTNV-1" source="80CJtaHzLF7KdKfBCswg-5" target="80CJtaHzLF7KdKfBCswg-7">
          <mxGeometry relative="1" as="geometry" />
        </mxCell>
        <mxCell id="80CJtaHzLF7KdKfBCswg-24" value="N" style="edgeLabel;html=1;align=center;verticalAlign=middle;resizable=0;points=[];" vertex="1" connectable="0" parent="80CJtaHzLF7KdKfBCswg-16">
          <mxGeometry x="-0.7933" y="1" relative="1" as="geometry">
            <mxPoint x="19" y="1" as="offset" />
          </mxGeometry>
        </mxCell>
        <mxCell id="80CJtaHzLF7KdKfBCswg-5" value="C2" style="rhombus;whiteSpace=wrap;html=1;" vertex="1" parent="WIyWlLk6GJQsqaUBKTNV-1">
          <mxGeometry x="135" y="274" width="150" height="80" as="geometry" />
        </mxCell>
        <mxCell id="80CJtaHzLF7KdKfBCswg-15" style="edgeStyle=orthogonalEdgeStyle;rounded=0;orthogonalLoop=1;jettySize=auto;html=1;exitX=0.5;exitY=1;exitDx=0;exitDy=0;endArrow=none;endFill=0;" edge="1" parent="WIyWlLk6GJQsqaUBKTNV-1" source="80CJtaHzLF7KdKfBCswg-6">
          <mxGeometry relative="1" as="geometry">
            <mxPoint x="210" y="234" as="targetPoint" />
            <Array as="points">
              <mxPoint x="210" y="514" />
              <mxPoint x="85" y="514" />
              <mxPoint x="85" y="264" />
              <mxPoint x="210" y="264" />
            </Array>
          </mxGeometry>
        </mxCell>
        <mxCell id="80CJtaHzLF7KdKfBCswg-6" value="f" style="rounded=0;whiteSpace=wrap;html=1;" vertex="1" parent="WIyWlLk6GJQsqaUBKTNV-1">
          <mxGeometry x="150" y="404" width="120" height="60" as="geometry" />
        </mxCell>
        <mxCell id="80CJtaHzLF7KdKfBCswg-17" style="edgeStyle=orthogonalEdgeStyle;rounded=0;orthogonalLoop=1;jettySize=auto;html=1;exitX=0.5;exitY=1;exitDx=0;exitDy=0;entryX=0.5;entryY=0;entryDx=0;entryDy=0;endArrow=none;endFill=0;" edge="1" parent="WIyWlLk6GJQsqaUBKTNV-1" source="80CJtaHzLF7KdKfBCswg-7" target="80CJtaHzLF7KdKfBCswg-8">
          <mxGeometry relative="1" as="geometry" />
        </mxCell>
        <mxCell id="80CJtaHzLF7KdKfBCswg-7" value="q" style="rounded=0;whiteSpace=wrap;html=1;" vertex="1" parent="WIyWlLk6GJQsqaUBKTNV-1">
          <mxGeometry x="300" y="580" width="120" height="60" as="geometry" />
        </mxCell>
        <mxCell id="80CJtaHzLF7KdKfBCswg-18" style="edgeStyle=orthogonalEdgeStyle;rounded=0;orthogonalLoop=1;jettySize=auto;html=1;exitX=0.5;exitY=1;exitDx=0;exitDy=0;entryX=0.5;entryY=0;entryDx=0;entryDy=0;endArrow=none;endFill=0;" edge="1" parent="WIyWlLk6GJQsqaUBKTNV-1" source="80CJtaHzLF7KdKfBCswg-8" target="80CJtaHzLF7KdKfBCswg-9">
          <mxGeometry relative="1" as="geometry" />
        </mxCell>
        <mxCell id="80CJtaHzLF7KdKfBCswg-8" value="r" style="rounded=0;whiteSpace=wrap;html=1;" vertex="1" parent="WIyWlLk6GJQsqaUBKTNV-1">
          <mxGeometry x="300" y="690" width="120" height="60" as="geometry" />
        </mxCell>
        <mxCell id="80CJtaHzLF7KdKfBCswg-19" value="Y" style="edgeStyle=orthogonalEdgeStyle;rounded=0;orthogonalLoop=1;jettySize=auto;html=1;exitX=0.5;exitY=1;exitDx=0;exitDy=0;endArrow=classic;endFill=1;" edge="1" parent="WIyWlLk6GJQsqaUBKTNV-1" source="80CJtaHzLF7KdKfBCswg-9">
          <mxGeometry relative="1" as="geometry">
            <mxPoint x="360" y="1050" as="targetPoint" />
          </mxGeometry>
        </mxCell>
        <mxCell id="80CJtaHzLF7KdKfBCswg-20" style="edgeStyle=orthogonalEdgeStyle;rounded=0;orthogonalLoop=1;jettySize=auto;html=1;exitX=0.5;exitY=1;exitDx=0;exitDy=0;entryX=0.5;entryY=0;entryDx=0;entryDy=0;endArrow=none;endFill=0;" edge="1" parent="WIyWlLk6GJQsqaUBKTNV-1" source="80CJtaHzLF7KdKfBCswg-9" target="80CJtaHzLF7KdKfBCswg-7">
          <mxGeometry relative="1" as="geometry">
            <Array as="points">
              <mxPoint x="360" y="950" />
              <mxPoint x="265" y="950" />
              <mxPoint x="265" y="560" />
              <mxPoint x="360" y="560" />
            </Array>
          </mxGeometry>
        </mxCell>
        <mxCell id="80CJtaHzLF7KdKfBCswg-22" value="N" style="edgeLabel;html=1;align=center;verticalAlign=middle;resizable=0;points=[];" vertex="1" connectable="0" parent="80CJtaHzLF7KdKfBCswg-20">
          <mxGeometry x="-0.7368" y="-3" relative="1" as="geometry">
            <mxPoint x="-42" as="offset" />
          </mxGeometry>
        </mxCell>
        <mxCell id="80CJtaHzLF7KdKfBCswg-9" value="C3" style="rhombus;whiteSpace=wrap;html=1;" vertex="1" parent="WIyWlLk6GJQsqaUBKTNV-1">
          <mxGeometry x="285" y="800" width="150" height="80" as="geometry" />
        </mxCell>
        <mxCell id="80CJtaHzLF7KdKfBCswg-26" value="&lt;b&gt;&lt;font style=&quot;font-size: 19px&quot;&gt;STOP&lt;/font&gt;&lt;/b&gt;" style="text;html=1;strokeColor=none;fillColor=none;align=center;verticalAlign=middle;whiteSpace=wrap;rounded=0;" vertex="1" parent="WIyWlLk6GJQsqaUBKTNV-1">
          <mxGeometry x="340" y="1050" width="40" height="20" as="geometry" />
        </mxCell>
      </root>
    </mxGraphModel>
  </diagram>
</mxfile>
